<svg xmlns="http://www.w3.org/2000/svg" viewBox="0 0 314.88 71.65"><defs><style>.cls-1{fill:#faa61a;}.cls-2{fill:#211d70;}.cls-3{fill:#06ace4;}.cls-4{fill:#e90d80;}.cls-5{fill:#5e625f;}</style></defs><title>logo</title><g id="Capa_2" data-name="Capa 2"><g id="Layer_1" data-name="Layer 1"><path class="cls-1" d="M38.56,0C18.92,0,1.71,16,.12,35.82s13,35.83,32.67,35.83,36.85-16,38.45-35.83S58.2,0,38.56,0ZM55.8,56.59h-10a1,1,0,0,1-1-.78l-7.49-28a1.15,1.15,0,0,0-2.17,0L23,56.08a1.29,1.29,0,0,1-1.15.78H12.19a1.08,1.08,0,0,1-.95-1.59l21-44.82a1.28,1.28,0,0,1,1.14-.73h8.73a1,1,0,0,1,1,.73L57,55A1.26,1.26,0,0,1,55.8,56.59Z"/><path class="cls-2" d="M157.62,23q-2.62-2.54-8-2.54A18.77,18.77,0,0,0,137.5,25a17.3,17.3,0,0,0-4.33,5.17l3.72-13.53c.6-2.19.54-3.83-.2-4.91s-2.24-1.61-4.49-1.61a20.44,20.44,0,0,0-5.44.65,17.46,17.46,0,0,1-.89,5.87l-6.25,23-2.88-24a6.77,6.77,0,0,0-1.69-4,6,6,0,0,0-4.32-1.34h-6.09l-24.9,38H91.9l3.56-5.93h13l.39,5.93h19.39l3-11q-.33,5.43,3.11,8.48,3.66,3.21,9.64,3.2a20.66,20.66,0,0,0,8.33-1.4,5.71,5.71,0,0,0,3.51-5.07,6.16,6.16,0,0,0-.8-3.93c-1.72,1.8-4.36,2.69-7.92,2.69a7.45,7.45,0,0,1-4.6-1.24,3.36,3.36,0,0,1-1.13-3.66,19,19,0,0,0,7.37,1.29q10.24,0,11.08-8.57A6.86,6.86,0,0,0,157.62,23ZM101.28,33.35l6.16-10.14L108,33.35ZM151,29.9c-.15,1.54-1.43,2.32-3.84,2.32a13.33,13.33,0,0,1-4.37-.54c1.51-2.55,3.53-3.83,6.09-3.83a2.18,2.18,0,0,1,1.67.59A1.87,1.87,0,0,1,151,29.9Z"/><path class="cls-2" d="M202.72,21.11h-10l-2.28,4q-1.49-4.63-6.83-4.64-5.12,0-9.3,4.75a19.09,19.09,0,0,0-2,2.67l.13-.47c.61-2.19.54-3.82-.19-4.9s-2.22-1.62-4.47-1.62a21.2,21.2,0,0,0-5.51.65,17.74,17.74,0,0,1-.89,5.88L154.6,52.6a13.06,13.06,0,0,1-2.94,5.88,11,11,0,0,0,5.49,1.08,8.38,8.38,0,0,0,5.52-1.65,10.16,10.16,0,0,0,3-5.32L169.37,39A11.53,11.53,0,0,0,171,45.8c1.39,2,3.56,3,6.5,3a8.45,8.45,0,0,0,4.55-1.32,11.41,11.41,0,0,0,3.51-3.37q-.18,4.69,5.37,4.69a14.52,14.52,0,0,0,5.87-1.07,10.52,10.52,0,0,1,.25-5.88ZM187.54,36.48q-2,3.62-4.82,3.61a2.43,2.43,0,0,1-1.94-.89,4,4,0,0,1-.55-2.94,9,9,0,0,1,1.94-5.34,4.57,4.57,0,0,1,3.32-1.72,2.59,2.59,0,0,1,2.24,1.1,4.3,4.3,0,0,1,.74,2.67Z"/><path class="cls-2" d="M263,16.65q.92-3.3-.23-4.92t-4.56-1.62a21,21,0,0,0-5.54.65,17.81,17.81,0,0,1-.89,5.88l-2.25,8.45c-1-3.08-3.29-4.63-6.87-4.63q-5.15,0-9.34,4.75A18.75,18.75,0,0,0,231,28.63c.71-5.44-1.39-8.17-6.33-8.17a11.23,11.23,0,0,0-5.29,1.4,19.1,19.1,0,0,0-4.49,3.24,3.73,3.73,0,0,0-1.1-3.18,6.26,6.26,0,0,0-4.05-1,20.17,20.17,0,0,0-5.29.65,18,18,0,0,1-.89,5.88l-5.68,20.76H208.9L213.06,33a10.33,10.33,0,0,1,2.41-2.48,4.62,4.62,0,0,1,2.66-1c1.23,0,1.59.93,1.09,2.81l-2.7,9.59q-1.92,7,4.93,7a14.6,14.6,0,0,0,5.88-1.07,10.91,10.91,0,0,1,.24-5.88l.8-2.91A11.44,11.44,0,0,0,230,45.8c1.38,2,3.55,3,6.5,3a8.57,8.57,0,0,0,4.57-1.32,11.41,11.41,0,0,0,3.51-3.37q-.18,4.69,5.4,4.69a14.45,14.45,0,0,0,5.89-1.07,10.4,10.4,0,0,1,.25-5.87ZM246.54,36.48c-1.32,2.41-2.92,3.61-4.83,3.61a2.43,2.43,0,0,1-1.94-.89,4,4,0,0,1-.55-2.94,9,9,0,0,1,1.95-5.34,4.55,4.55,0,0,1,3.32-1.72,2.59,2.59,0,0,1,2.24,1.1,4.28,4.28,0,0,1,.74,2.67Z"/><path class="cls-2" d="M314.88,21.11h-10l-2.27,4q-1.5-4.63-6.83-4.64-5.13,0-9.31,4.75c-.11.12-.2.26-.31.38q.07-.4.12-.81a3.91,3.91,0,0,0-.85-3.21,4,4,0,0,0-3-1.11q-4.26,0-8.7,5.18c.24-3.16-1.44-4.75-5-4.75a20.09,20.09,0,0,0-5.28.65,17.74,17.74,0,0,1-.89,5.88l-5.67,20.76H267.9L272,33.08a9.51,9.51,0,0,1,6.47-2.8,4.55,4.55,0,0,1,4.15,2,23.33,23.33,0,0,0-.95,4.8q-.56,5.72,1.53,8.73c1.38,2,3.55,3,6.5,3a8.47,8.47,0,0,0,4.55-1.32,11.49,11.49,0,0,0,3.5-3.37q-.18,4.69,5.37,4.69A14.6,14.6,0,0,0,309,47.75a10.51,10.51,0,0,1,.24-5.88ZM299.7,36.48q-2,3.62-4.82,3.61a2.43,2.43,0,0,1-1.94-.89,4,4,0,0,1-.55-2.94,8.93,8.93,0,0,1,1.95-5.34,4.55,4.55,0,0,1,3.32-1.72,2.6,2.6,0,0,1,2.24,1.1,4.37,4.37,0,0,1,.74,2.67Z"/><ellipse class="cls-3" cx="169.62" cy="13.86" rx="5.88" ry="5.33" transform="translate(37.26 120.83) rotate(-43.62)"/><path class="cls-4" d="M165.14,67.21l3.1-11.4a6.56,6.56,0,0,0,.32-2.12,7.8,7.8,0,0,1,2.09-.24,2,2,0,0,1,1.71.59,2,2,0,0,1,.09,1.76l-2.13,7.84H176l-1,3.57Z"/><path class="cls-4" d="M174.92,61.73a9.78,9.78,0,0,1,2.64-6.08,8.11,8.11,0,0,1,6.09-2.35,5.11,5.11,0,0,1,4.11,1.54,5.39,5.39,0,0,1,1.07,4.2,10.9,10.9,0,0,1-.81,3.27,9.52,9.52,0,0,1-1.7,2.66,7.56,7.56,0,0,1-2.66,1.81,9.22,9.22,0,0,1-3.56.66A5.14,5.14,0,0,1,176,65.91,5.31,5.31,0,0,1,174.92,61.73Zm9.52-2.37a3,3,0,0,0-.29-1.83,1.42,1.42,0,0,0-1.32-.67,2.82,2.82,0,0,0-2.46,1.34,6.65,6.65,0,0,0-1.07,3.18,3,3,0,0,0,.28,1.82,1.4,1.4,0,0,0,1.33.67,2.8,2.8,0,0,0,2.44-1.33A6.66,6.66,0,0,0,184.44,59.36Z"/><path class="cls-4" d="M195.26,62.92h-2l-1.16,4.29h-4.22l3.72-13.68h6q4.57,0,4.18,4a5.86,5.86,0,0,1-1.85,3.9A6.64,6.64,0,0,1,195.26,62.92Zm-.41-5.9-.66,2.41h1.91a1.21,1.21,0,0,0,1-.43,2,2,0,0,0,.41-1c.06-.62-.19-.93-.73-.93Z"/><path class="cls-4" d="M208.65,61.79h-2.82l-.52,1.93h5.81l-1,3.49h-10l3.73-13.68h9.93L212.93,57h-5.79l-.45,1.63h5.16l-.29,1a3,3,0,0,1-1,1.65A3.16,3.16,0,0,1,208.65,61.79Z"/><path class="cls-4" d="M214.57,55.67a2.08,2.08,0,0,1,.84-1.64,3.61,3.61,0,0,1,2.05-.5H226l-.91,3.36-7.76,6.85,6-.06-1,3.53H211.3l.9-3.35L220,57l-2.73,0a5.31,5.31,0,0,0-2.45.54A3.68,3.68,0,0,1,214.57,55.67Z"/><path class="cls-4" d="M184.24,50.69l-1.35,2h3.5l1.66-1a.55.55,0,0,0-.21-1Z"/><path class="cls-4" d="M242.76,53.53,239,67.21h-4l-2.5-7-1.93,7h-4.18l3.76-13.68h4l2.5,7,1.91-7Z"/><path class="cls-4" d="M241.83,61.73a9.79,9.79,0,0,1,2.65-6.08,8.08,8.08,0,0,1,6.09-2.35,5.14,5.14,0,0,1,4.11,1.54,5.39,5.39,0,0,1,1.06,4.2,10.9,10.9,0,0,1-.81,3.27,9.09,9.09,0,0,1-1.7,2.66,7.56,7.56,0,0,1-2.66,1.81,9.22,9.22,0,0,1-3.56.66,5.14,5.14,0,0,1-4.11-1.53A5.35,5.35,0,0,1,241.83,61.73Zm9.52-2.37a3.09,3.09,0,0,0-.28-1.83,1.44,1.44,0,0,0-1.33-.67,2.82,2.82,0,0,0-2.46,1.34,6.76,6.76,0,0,0-1.07,3.18,3,3,0,0,0,.28,1.82,1.41,1.41,0,0,0,1.33.67,2.82,2.82,0,0,0,2.45-1.33A6.76,6.76,0,0,0,251.35,59.36Z"/><path class="cls-4" d="M264.14,61.71l.79,3.22a4.44,4.44,0,0,0,.95,2.06,4.69,4.69,0,0,1-2.26.45,2.89,2.89,0,0,1-2.11-.59,3.91,3.91,0,0,1-.83-1.92l-.48-2.4h-1.29l-1.27,4.67h-4.21l3.71-13.68h6.22c3.05,0,4.45,1.22,4.22,3.66a5.35,5.35,0,0,1-1.1,2.81A5.21,5.21,0,0,1,264.14,61.71ZM260.41,57l-.6,2.19h1.85c1,0,1.54-.45,1.62-1.33.06-.58-.23-.86-.87-.86Z"/><path class="cls-4" d="M273.44,55.73,270.3,67.21h-4.17l3.1-11.4a6.56,6.56,0,0,0,.32-2.12,7.85,7.85,0,0,1,2.09-.24,2,2,0,0,1,1.71.57A1.94,1.94,0,0,1,273.44,55.73Z"/><path class="cls-4" d="M280.26,61.79h-2.82l-.52,1.93h5.81l-1,3.49h-10l3.73-13.68h9.93L284.54,57h-5.79l-.45,1.63h5.16l-.29,1a3,3,0,0,1-1,1.65A3.16,3.16,0,0,1,280.26,61.79Z"/><path class="cls-4" d="M307.16,55.44a2.38,2.38,0,0,0-.61-1.46,2.1,2.1,0,0,0-1.56-.49h-2.2l-7.26,11.08,1.57-5.67h-4a2.55,2.55,0,0,0-1.61.44,2.82,2.82,0,0,0-.9,1.51l-.23.75h2.38l-.51,1.9a5.26,5.26,0,0,1-1.58.21c-1.53,0-2.22-.85-2.06-2.55A5.42,5.42,0,0,1,289.9,58a3.88,3.88,0,0,1,3.06-1.2,3.62,3.62,0,0,1,3.14,1.32A4.62,4.62,0,0,0,297.16,57a3,3,0,0,0,.5-1.24,1.65,1.65,0,0,0-.59-1.47,3.64,3.64,0,0,0-1.6-.78,9.29,9.29,0,0,0-2-.2A8.89,8.89,0,0,0,287,55.6a9.11,9.11,0,0,0-2.78,5.94,5.26,5.26,0,0,0,1.1,4.19,5.63,5.63,0,0,0,4.34,1.49l.61,0h7.89l1.29-2.15h4.69l.14,2.15h4.27Zm-5.57,6.41,2.22-3.66.19,3.66Z"/><path class="cls-5" d="M186.53,15.93h-2.95l1.33-7.6h2.66a3.19,3.19,0,0,1,2.33.81,3.12,3.12,0,0,1,.82,2.33,5.28,5.28,0,0,1-.27,1.71,4.2,4.2,0,0,1-.77,1.41,3.46,3.46,0,0,1-1.32,1A4.46,4.46,0,0,1,186.53,15.93Zm-1-1.48h1.17a1.94,1.94,0,0,0,1.68-.83,3.43,3.43,0,0,0,.6-2.07,1.9,1.9,0,0,0-.41-1.29,1.5,1.5,0,0,0-1.18-.46h-1Z"/><path class="cls-5" d="M195,9.38l-1.16,6.55h-1.7l1.15-6.57a3.34,3.34,0,0,0,0-.94,2.47,2.47,0,0,1,.86-.13C194.85,8.29,195.12,8.65,195,9.38Z"/><path class="cls-5" d="M199.66,13.33h-1.23l-.46,2.6h-1.7l1.33-7.6h2.84a2.65,2.65,0,0,1,1.84.56,2,2,0,0,1,.62,1.59,2.67,2.67,0,0,1-.86,2A3.37,3.37,0,0,1,199.66,13.33ZM199,9.8l-.36,2.06h1.26a1.21,1.21,0,0,0,.94-.35,1.31,1.31,0,0,0,.3-.89A.81.81,0,0,0,201,10a.89.89,0,0,0-.66-.22Z"/><path class="cls-5" d="M204.83,12.77l.61-3.41a3,3,0,0,0,0-.94,2.47,2.47,0,0,1,.86-.13c.68,0,.95.35.82,1.06l-.58,3.33c-.22,1.26.15,1.89,1.13,1.89s1.58-.63,1.81-1.89l.77-4.35H212l-.79,4.43A4.23,4.23,0,0,1,210,15.24a3.44,3.44,0,0,1-2.43.8,2.78,2.78,0,0,1-2.31-.86A2.92,2.92,0,0,1,204.83,12.77Z"/><path class="cls-5" d="M219.38,9.82l-2.23,0-1.1,6.14h-1.71l1.1-6.14-2.25,0,.26-1.47h6.19Z"/><path class="cls-5" d="M225,9.22l1.35,6.71h-1.73l-.3-1.59h-2.84l-.85,1.59h-1.81l4.24-7.62h.76a1.3,1.3,0,0,1,.82.21A1.19,1.19,0,0,1,225,9.22Zm-1.39,1.11-1.36,2.6h1.8Z"/><path class="cls-5" d="M231,15.93h-2.95l1.34-7.6h2.65a3.19,3.19,0,0,1,2.33.81,3.12,3.12,0,0,1,.82,2.33,5.28,5.28,0,0,1-.27,1.71,4.2,4.2,0,0,1-.77,1.41,3.46,3.46,0,0,1-1.32,1A4.46,4.46,0,0,1,231,15.93Zm-1-1.48h1.17a1.94,1.94,0,0,0,1.68-.83,3.43,3.43,0,0,0,.6-2.07,1.9,1.9,0,0,0-.41-1.29,1.5,1.5,0,0,0-1.18-.46h-1Z"/><path class="cls-5" d="M241.68,9.22,243,15.93H241.3L241,14.34h-2.85l-.84,1.59H235.5l4.24-7.62h.76a1.3,1.3,0,0,1,.82.21A1.14,1.14,0,0,1,241.68,9.22Zm-1.39,1.11-1.36,2.6h1.81Z"/></g></g></svg>